<?xml version="1.0" standalone="no"?>
<!DOCTYPE svg PUBLIC "-//W3C//DTD SVG 20010904//EN"
 "http://www.w3.org/TR/2001/REC-SVG-20010904/DTD/svg10.dtd">
<svg version="1.0" xmlns="http://www.w3.org/2000/svg"
 width="624.000000pt" height="624.000000pt" viewBox="0 0 624.000000 624.000000"
 preserveAspectRatio="xMidYMid meet">
<metadata>
Created by potrace 1.14, written by Peter Selinger 2001-2017
</metadata>
<g transform="translate(0.000000,624.000000) scale(0.100000,-0.100000)"
fill="#000000" stroke="none">
<path d="M2075 5593 c-110 -16 -244 -71 -335 -138 -56 -41 -135 -124 -176
-185 -76 -111 -1011 -1810 -1036 -1884 -60 -169 -60 -364 0 -532 15 -44 101
-211 191 -372 132 -236 166 -291 176 -280 7 7 328 576 715 1263 386 688 709
1258 718 1269 63 72 192 53 241 -34 49 -88 98 10 -735 -1471 -416 -739 -759
-1351 -761 -1360 -4 -15 303 -586 331 -616 8 -8 178 277 655 1102 714 1236
685 1192 831 1263 74 37 76 37 201 37 125 0 125 0 203 -39 225 -111 336 -373
259 -611 -9 -27 -312 -563 -674 -1191 -362 -627 -661 -1148 -665 -1158 -6 -16
52 -16 987 -13 1075 3 1007 0 1147 56 117 47 238 145 317 256 76 107 1018
1814 1047 1899 59 166 60 358 3 526 -26 78 -264 521 -278 517 -4 -1 -297 -533
-650 -1182 -515 -943 -651 -1185 -680 -1208 -69 -56 -168 -46 -231 23 -38 42
-51 89 -43 149 3 26 236 461 691 1295 378 692 692 1268 698 1281 9 21 -18 74
-252 497 -145 260 -282 500 -305 533 -99 140 -240 239 -414 292 -51 16 -147
17 -1101 19 -575 1 -1058 -1 -1075 -3z m1957 -634 c219 -46 378 -247 378 -479
0 -189 -124 -400 -281 -479 -304 -152 -654 57 -676 404 -7 103 9 176 59 276
106 213 310 322 520 278z"/>
</g>
</svg>
